<?xml version="1.0" encoding="utf-8"?>
<!-- Generator: Adobe Illustrator 24.1.0, SVG Export Plug-In . SVG Version: 6.00 Build 0)  -->
<svg version="1.1" id="Capa_1" xmlns="http://www.w3.org/2000/svg" xmlns:xlink="http://www.w3.org/1999/xlink" x="0px" y="0px"
	 viewBox="0 0 520 520" style="enable-background:new 0 0 520 520;" xml:space="preserve">
<style type="text/css">
	.st0{fill:none;}
	.st1{fill:#00B8D9;}
</style>
<rect x="-2.6" y="-2.6" width="525.2" height="525.2"/>
<g>
	<polygon class="st0" points="260,153.2 288.7,136.7 260,120.2 231.3,136.7 202.6,153.2 173.9,169.8 202.6,186.3 231.3,169.8 	"/>
	<path class="st1" d="M260.1,219.3l-28.7-16.5l28.7-16.5l28.7-16.5l28.6-16.4l28.7,16.5l28.7,16.4l28.7-16.5l-28.7-16.4l-28.7-16.6
		l-28.7-16.5l-28.7-16.5l-28.6-16.5l-28.7,16.5l-28.7,16.5l-28.7,16.5l-28.6,16.6l-28.7,16.4l28.7,16.5l28.6,16.5l28.7,16.5
		l28.7,16.5l28.7,16.5l28.7-16.5L260.1,219.3z M173.9,169.8l28.7-16.4l28.7-16.6l28.7-16.5l28.7,16.5l-28.7,16.6l-28.7,16.4
		l-28.7,16.5L173.9,169.8z"/>
	<polygon class="st1" points="193.7,235.2 165.3,218.7 136.8,202.2 108.3,185.8 108.3,218.7 108.3,251.6 108.3,284.6 136.8,301.1 
		165.3,317.5 193.7,334 222.3,350.5 222.3,383.5 193.7,367 165.3,350.5 136.8,334 108.3,317.5 108.3,350.5 136.8,367 165.3,383.5 
		193.7,400 222.3,416.4 250.8,432.9 250.8,399.9 250.8,367 250.8,334 222.3,317.5 193.7,301 165.3,284.6 136.8,268.1 136.8,235.2 
		165.3,251.6 193.7,268.1 222.3,284.6 250.8,301 250.8,268.1 222.3,251.6 	"/>
	<polygon class="st1" points="383.2,202.2 354.7,218.7 326.3,235.2 297.7,251.6 269.2,268.1 269.2,301 269.2,334 269.2,367 
		269.2,399.9 269.2,432.9 297.7,416.4 297.7,383.5 297.7,350.5 297.7,317.5 297.7,284.6 326.3,268.1 326.3,301 326.3,334 326.3,367 
		326.3,400 354.7,383.5 354.7,350.5 354.7,317.5 354.7,284.6 354.7,251.6 383.2,235.2 383.2,268.1 383.2,301.1 383.2,334 383.2,367 
		411.7,350.5 411.7,317.5 411.7,284.6 411.7,251.6 411.7,218.7 411.7,185.8 	"/>
</g>
</svg>
