<?xml version="1.0" encoding="utf-8"?>
<!-- Generator: Adobe Illustrator 24.1.0, SVG Export Plug-In . SVG Version: 6.00 Build 0)  -->
<svg version="1.1" id="Capa_1" xmlns="http://www.w3.org/2000/svg" xmlns:xlink="http://www.w3.org/1999/xlink" x="0px" y="0px"
	 viewBox="0 0 520 520" style="enable-background:new 0 0 520 520;" xml:space="preserve">
<style type="text/css">
	.st0{fill:#FFFFFF;}
	.st1{fill:#00B8D9;}
</style>
<rect x="-2.6" y="-2.6" class="st0" width="525.2" height="525.2"/>
<g>
	<path d="M188.6,163.6h8.6c4.6,0,8.4,3.7,8.4,8.4c0,0,0,0,0,0v10.3l-4.3-2.5c-1.3-0.7-2.7-1.1-4.2-1.1h-17c-2.1,0-3.8,1.7-3.8,3.8
		v54.3c0,2.1,1.7,3.8,3.8,3.8h17c1.5,0,2.9-0.4,4.2-1.1l4.3-2.6v10.3c0,4.6-3.7,8.4-8.4,8.4l0,0h-27.7c-4.5,0-8.1-3.7-8.1-8.1v-75.6
		c0-4.5,3.6-8.1,8.1-8.1L188.6,163.6L188.6,163.6z"/>
	<path d="M245.7,163.6c4.6,0,8.4,3.8,8.4,8.4v75.1c0,4.6-3.8,8.4-8.4,8.4l0,0h-27.4c-4.6,0-8.4-3.8-8.4-8.4l0,0V172
		c0-4.6,3.8-8.4,8.4-8.4c0,0,0,0,0,0H245.7z M239.1,237.1v-55.2c0-1.9-1.5-3.4-3.4-3.4h-7.6c-1.9,0-3.4,1.5-3.4,3.4c0,0,0,0,0,0
		v55.2c0,1.9,1.5,3.4,3.4,3.4h7.6C237.6,240.5,239.1,239,239.1,237.1L239.1,237.1z"/>
	<path d="M291.4,163.6h7.6c4,0,7.3,3.2,7.3,7.2c0,0,0,0,0,0v77.2c0,4-3.3,7.3-7.3,7.3c0,0,0,0,0,0h-40.5l2.7-4.5
		c0.7-1.1,1-2.4,1-3.7v-75.3c0-1.3-0.4-2.6-1-3.7l-2.7-4.5L291.4,163.6L291.4,163.6z M291.4,237v-55c0-1.9-1.5-3.5-3.5-3.5
		c0,0,0,0,0,0h-10.8v61.9h10.8C289.8,240.5,291.4,238.9,291.4,237z"/>
	<path d="M358.5,163.6v18.7l-4.6-2.7c-1.1-0.7-2.3-1-3.6-1h-21v17.9h13.6c1.3,0,2.5-0.3,3.6-1l4.5-2.7v22.4l-4.5-2.7
		c-1.1-0.6-2.4-1-3.6-1h-13.5v29h21c1.3,0,2.5-0.3,3.6-1l4.6-2.7v18.6h-47.9l2.7-4.5c0.6-1.1,1-2.4,1-3.6v-75.4c0-1.3-0.3-2.5-1-3.6
		l-2.7-4.6L358.5,163.6z"/>
	<path d="M73.1,273v74.9c0,1.5,0.4,2.9,1.1,4.1l2.6,4.3H54.5L57,352c0.7-1.2,1.1-2.7,1.1-4.1V273c0-1.4-0.4-2.9-1.1-4.1l-2.6-4.3
		h22.3l-2.6,4.3C73.5,270.1,73.1,271.5,73.1,273z"/>
	<path d="M129.1,272.7v75.4c0,1.3,0.3,2.6,1,3.7l2.7,4.5h-22.3l0.6-1c1-1.8,1.3-3.9,0.7-5.8l-11.8-37.8v36.4c0,1.3,0.3,2.6,1,3.7
		l2.7,4.5H81.2l2.7-4.5c0.7-1.1,1-2.4,1-3.7v-75.4c0-1.3-0.3-2.6-1-3.7l-2.7-4.5h22.4l-0.6,1.1c-1,1.8-1.3,3.9-0.7,5.8l11.9,38
		v-36.7c0-1.3-0.3-2.6-1-3.7l-2.7-4.5h22.3l-2.7,4.5C129.4,270.2,129.1,271.4,129.1,272.7z"/>
	<path d="M181.4,264.5h3.7l-2.7,4.5c-0.7,1.1-1,2.4-1,3.7v76.3c0,4-3.3,7.3-7.3,7.3h-29.6c-4,0-7.3-3.3-7.3-7.3v-23.6
		c0-2.8,1.5-5.3,3.9-6.7l11.1-6.4v25.3c0,2,1.6,3.7,3.7,3.7c0,0,0,0,0,0h6.9c2,0,3.7-1.6,3.7-3.7c0,0,0,0,0,0v-64.9
		c0-1.3-0.3-2.6-1-3.7l-2.7-4.5L181.4,264.5L181.4,264.5z"/>
	<path d="M237.3,264.5v18.7l-4.5-2.7c-1.1-0.7-2.4-1-3.6-1h-21v17.9h13.5c1.3,0,2.5-0.3,3.6-1l4.6-2.7V316l-4.6-2.7
		c-1.1-0.7-2.4-1-3.6-1H208v29h21c1.3,0,2.5-0.3,3.6-1l4.5-2.7v18.7h-47.9l2.7-4.6c0.6-1.1,1-2.4,1-3.6v-75.4c0-1.3-0.3-2.5-1-3.6
		l-2.7-4.6H237.3z"/>
	<path d="M268.8,264.5h8.6c4.6,0,8.4,3.7,8.4,8.4c0,0,0,0,0,0v10.3l-4.3-2.5c-1.3-0.7-2.7-1.1-4.2-1.1h-17c-2.1,0-3.8,1.7-3.8,3.8
		c0,0,0,0,0,0v54.3c0,2.1,1.7,3.8,3.8,3.8l0,0h17c1.5,0,2.9-0.4,4.2-1.1l4.3-2.6V348c0,4.6-3.7,8.4-8.4,8.4c0,0,0,0,0,0h-27.6
		c-4.5,0-8.1-3.6-8.1-8.1c0,0,0,0,0,0v-75.6c0-4.5,3.6-8.1,8.1-8.1c0,0,0,0,0,0L268.8,264.5L268.8,264.5z"/>
	<path d="M334.3,264.5v18.7l-4.5-2.6c-1.2-0.7-2.5-1.1-3.8-1.1h-6.3v68.6c0,1.3,0.4,2.7,1.1,3.8l2.6,4.5H301l2.7-4.5
		c0.7-1.2,1.1-2.5,1.1-3.8v-68.6h-6.3c-1.3,0-2.7,0.4-3.8,1.1l-4.5,2.6v-18.7H334.3z"/>
	<path d="M357.3,273v74.9c0,1.5,0.4,2.9,1.1,4.1l2.6,4.3h-22.4l2.6-4.3c0.7-1.2,1.1-2.7,1.1-4.1V273c0-1.4-0.4-2.9-1.1-4.1l-2.6-4.3
		H361l-2.6,4.3C357.7,270.1,357.3,271.5,357.3,273z"/>
	<path class="st1" d="M401.2,264.5c4.6,0,8.4,3.8,8.4,8.4v75c0,4.6-3.8,8.4-8.4,8.4h-27.4c-4.6,0-8.4-3.8-8.4-8.4v-75
		c0-4.6,3.8-8.4,8.4-8.4H401.2z M394.6,338v-55.2c0-1.9-1.5-3.4-3.4-3.4l0,0h-7.6c-1.9,0-3.4,1.5-3.4,3.4l0,0V338
		c0,1.9,1.5,3.4,3.4,3.4l0,0h7.6C393.1,341.4,394.6,339.9,394.6,338L394.6,338z"/>
	<path class="st1" d="M461.8,272.7v75.4c0,1.3,0.3,2.6,1,3.7l2.7,4.5h-22.3l0.6-1c1-1.8,1.3-3.9,0.7-5.8l-11.8-37.8v36.4
		c0,1.3,0.3,2.6,1,3.7l2.7,4.5h-22.4l2.7-4.5c0.7-1.1,1-2.4,1-3.7v-75.4c0-1.3-0.3-2.6-1-3.7l-2.7-4.5h22.4l-0.6,1.1
		c-1,1.8-1.3,3.9-0.7,5.8l11.9,38v-36.7c0-1.3-0.3-2.6-1-3.7l-2.7-4.5h22.4l-2.7,4.5C462.2,270.2,461.8,271.4,461.8,272.7
		L461.8,272.7z"/>
</g>
</svg>
