<svg id="Capa_1" data-name="Capa 1" xmlns="http://www.w3.org/2000/svg" viewBox="0 0 512 512"><defs><style>.cls-1{fill:#fff;}</style></defs><path d="M435.72,5.79c-.76,0-1.51,0-2.26,0H78.54c-.75,0-1.5,0-2.26,0A76.28,76.28,0,0,0,0,82.06V429.94a76.28,76.28,0,0,0,76.28,76.27H435.72A76.28,76.28,0,0,0,512,429.94V82.06A76.28,76.28,0,0,0,435.72,5.79Z"/><polygon class="cls-1" points="325.06 172.5 256 241.56 186.94 172.5 117.89 103.45 48.83 172.5 117.89 241.56 186.94 310.62 256 379.67 325.06 310.62 394.11 241.56 325.06 172.5"/><polygon class="cls-1" points="389.96 408.55 389.96 310.89 389.96 261.14 292.3 360.64 292.3 408.55 389.96 408.55"/><polygon class="cls-1" points="123.19 408.55 123.19 310.89 123.19 261.14 220.85 360.64 220.85 408.55 123.19 408.55"/></svg>