<?xml version="1.0" encoding="utf-8"?>
<!-- Generator: Adobe Illustrator 24.1.0, SVG Export Plug-In . SVG Version: 6.00 Build 0)  -->
<svg version="1.1" id="Capa_1" xmlns="http://www.w3.org/2000/svg" xmlns:xlink="http://www.w3.org/1999/xlink" x="0px" y="0px"
	 viewBox="0 0 520 520" style="enable-background:new 0 0 520 520;" xml:space="preserve">
<style type="text/css">
	.st0{fill:#00B8D9;}
	.st1{clip-path:url(#SVGID_2_);}
</style>
<rect x="-2.6" y="-2.6" class="st0" width="525.2" height="525.2"/>
<g>
	<defs>
		<rect id="SVGID_1_" x="-2.6" y="-2.6" width="525.2" height="525.2"/>
	</defs>
	<clipPath id="SVGID_2_">
		<use xlink:href="#SVGID_1_"  style="overflow:visible;"/>
	</clipPath>
	<path class="st1" d="M320.3,186.5L269,175.6l-32.5,7.6l-26.7,34.1l-39.9-52l-44.2-13.8l-20.1,2.9L99,211.2l-0.4-0.4v0.4l-42.1-27.7
		l-2.1-1.2l-15.8-9.9L-185.2,53.1l-50.8-2.9l55.5,58.8l48.7,8.8l-47.5-2.1l72.1,51.6l89.2,13l-77.9,0.2l59.2,49.1l19.7,28.4
		l19.3,16.2l1.8,1.4l16.8,14.2l0.8,0.8l10.5,8.8l2.5,5.1l0.4,0.4l8.8,18.3l-50.8,53.2L-47.1,407l-70.9,35.8l-40.9,25.3l-15,27.5
		l51.8-9.9h0.4l54.1-23l41.3-9.2l19.7-9.2l60.8-7l-8,21.2l10.3,3.7l22-25.5l14.2,0.8v7l-19.3,14.6l23.4,5.1l14.6-12.1l2.5-11.7
		l15.8-2.1l64.7-39.3l3.3-1.4h0.4v-1.8l21.2-27.9h13l38.8-50.8l0.8-1.2l17.1-22.4l29.2-50.8l11.7-20.5c4.7-3.3,58.2-42.5,154.1-57.5
		h1l9.5-15L338,185.7L320.3,186.5z M316.6,190.2l-6.2,8.8l-28.4-16.2L316.6,190.2z M277.2,259.3l-22,13.8l-13.6-11.7l19.1-16.2
		l2.9,0.4L277.2,259.3z M269.8,245.1l32.5,0.8l-21.2,10.9L269.8,245.1z M223.1,311.5l-18.3-16.8l23.4,0.4L223.1,311.5z M225.2,317.8
		l27.1,1.8l-38,12.5L225.2,317.8z M204.8,291.1l31.2-25.5l2.1-1.8l15.8,13.8l-1.8-0.4l-22.4,14.2L204.8,291.1z M261.1,239.5
		l-27.5,23.4l-25.9,20.8l22.6-35.1l19.7-22l25.9-23.4l32.5-1.2l-9.2,12.5L261.1,239.5z M248.6,221.5l-15-16.8L269,203L248.6,221.5z
		 M268.5,180.3l30.8,17.5l-24.2,0.8l-30.8-13L268.5,180.3z M238.5,187.7l27.1,11.7l-37.6,1.8L238.5,187.7z M226.4,203.2l19.3,21.8
		l-16.8,19.1l-16.8-22.4L226.4,203.2z M226,247.3l-24.5,38l0.8-31.2l-5.8-12.5l0.4-2.1l8-9.9l0.4-0.4l3.3-4.1L226,247.3z
		 M65.1,400.4l-6.2-34.7l54.9,4.7L65.1,400.4z M112.6,376.2l-31.7,42.5l-13.8-14.6L112.6,376.2z M55.6,371.1l5.3,31.2l-20.5,7
		L55.6,371.1z M36.5,409.9L1,396.7l51.6-28.8L36.5,409.9z M55.2,234.4L4.3,249L48,227L55.2,234.4z M52.3,224.9l7.6-3.7l1.8,11.7
		l-1.8,0.4L52.3,224.9z M58.9,238.7l7.4,8.4l-41.7,16.2L58.9,238.7z M63.9,219.4V219l-2.5-17.5l27.5,50.1l2.9,3.3l-18.7-7.4
		l-2.5-1.8l-8.4-9.5l3.3-4.3L63.9,219.4z M69.6,250.4l21.2,8.8l-2.5,0.8L37.1,280L69.6,250.4z M192.1,236.9L127,206.4l67,19.7
		L192.1,236.9z M194.4,246.5l3.7,8.4l-6.2,2.1L194.4,246.5z M156.3,287l9.5-16.2l12.1,38L156.3,287z M177.1,313.1l-40.3-3.3
		l16.2-18.7l1.4-0.8L177.1,313.1z M165.8,262.8l-5.8-2.1h7L165.8,262.8z M167.9,261.1l10.9,0.4l-9.9,2.9L167.9,261.1z M155.9,256.8
		l35.4-13.4l-2.9,14.2L155.9,256.8z M163.9,266.7l-9.2,15.4l-7-21.2L163.9,266.7z M151.6,286.6l-15,17.1l8.4-36.2L151.6,286.6z
		 M156.7,331.8l-39.3-0.8l15-16.8L156.7,331.8z M140.9,266.7l-9.9,42.7l-3.7,0.8l-24.9,3.3L140.9,266.7z M122.2,282.7l-19.3-21.8
		l38.4-1.2L122.2,282.7z M126.7,314.5l-14.2,15.4l-11.3-11.7L126.7,314.5z M109.1,332.4l-43.6,23.8l31.7-36.2L109.1,332.4z
		 M94.7,314.8l-41.3,5.5l42.1-36.2L94.7,314.8z M91.8,319.3l-34.3,39.5L48,325.2L91.8,319.3z M63.4,361.8l47.5-25.9l6.6,30.6
		L63.4,361.8z M115.6,335.1l42.1,0.8l-35.4,29.4L115.6,335.1z M124.7,368l36.8-30l0.4,45l-0.8,0.8L124.7,368z M157.2,386.3l-22,30.4
		l-11.3-44.2L157.2,386.3z M139.5,314.5l39.3,2.9l-15.8,13.8L139.5,314.5z M166.8,333.5l2.1-1.8h-0.4l15.8-13.8l7.6,30.6
		L166.8,333.5z M192.1,353.2l-26.3,25.9l-0.4-41.7L192.1,353.2z M182.9,309l-12.1-37.6l24.9,21.2l-1.4,2.1L182.9,309z M172.4,267.3
		l19.3-5.8l7.4-2.5l-2.1,29.6L172.4,267.3z M201.6,213.6l5.8,7.4l-4.7,5.5l-3.3-2.5L201.6,213.6z M201.3,228.2l-3.3,4.3l0.8-5.1
		L201.3,228.2z M198.3,209.1l-2.5,11.7l-53.4-53.4l49.5,32.9L198.3,209.1z M167.8,169l16.2,21.2l-45.8-30.6L167.8,169z M125.1,156.1
		l48.3,48.1l-61.2-46.4L125.1,156.1z M109.7,160.6l77.5,58.8l-81.6-23.8L109.7,160.6z M104.8,200.7l84.1,39.3l-40.9,15.4l-3.3,0.4
		l-41.7-40.9L104.8,200.7z M101.9,220l36.6,35.8L99,257.2L101.9,220z M119.5,286.2L99,310.8l0.8-30l-1.8-3.3l-14.2-11.7l13-4.3
		L119.5,286.2z M93.5,279.2L50.7,295l29.6-26.9L93.5,279.2z M97.8,215.5l-2.9,37l-2.9-3.3l-31.7-57.5L97.8,215.5z M59.8,220
		l-9.9,2.5l-5.5-6.2l14.2-5.8L59.8,220z M45.2,223.3L-0.5,234l40.9-16.8L45.2,223.3z M58.3,209.7l-17.1,2.9l-2.9-3.3l17.9-14.6
		L58.3,209.7z M36.9,176.4l18.7,12.1l0.4,1.8l-15.4,13h-7l-9.2-10.5h-0.8l-32.9-37.6L36.9,176.4z M36.5,213.4l-47.1,8.4L31,206.9
		L36.5,213.4z M27.3,203.4l-62.1,1.8l53.8-11.3L27.3,203.4z M-186.9,57.2l162.1,86.3l26.7,30.8l-111.6-71.7l-109.7-47.3L-186.9,57.2
		z M-222.8,58.7l102.8,44.6l-59.2,1.8L-222.8,58.7z M-160.2,108.6l49.1-1.8L-42,151l-57.8-31.6L-160.2,108.6z M-101,123.2l88.8,48.3
		l-146.3-50.8L-101,123.2z M-105.7,163.7l-53.8-38.8l149.2,52L-105.7,163.7z M10.6,184l6.6,7.4l-68.8-7L10.6,184z M-83.5,185.1
		l81.2,8.8l-55.9,12.7L-83.5,185.1z M-55.3,209.3l72.8-1.8l-53,18.5L-55.3,209.3z M-31.9,229.7l54.1-9.5l-47.5,19.3L-31.9,229.7z
		 M-22.7,242.8l55.9-12.9l-48.1,24.2L-22.7,242.8z M-11.4,257.8l59.6-17.1L5.3,272.4L-11.4,257.8z M7.3,273.9l51.6-20.1l-36.2,32.9
		L7.3,273.9z M34.3,296.9l-9.5-8.4l45.4-17.9l-33.7,30.8L34.3,296.9z M37.3,303.5l50.4-17.9L46,321.5L37.3,303.5z M44.3,327.3
		l9.9,34.7l-56.9,31.7l-2.1-14.6L44.3,327.3z M-8.5,382.4l2.1,13.6l-32.5,27.9l-6.2-13.8L-8.5,382.4z M-116.8,446.9l48.3-24.2
		l-74.2,51.6l-11.7-4.3L-116.8,446.9z M-166.5,490.7l9.2-17.5l27.1,10.3L-166.5,490.7z M-70.3,460l-20.8,8.8l-32.1,13l-15-5.8
		l90-62.5l6.2,14.2L-70.3,460z M-28.2,450.8l-35.1,8l24.2-27.9l27.1,12.5L-28.2,450.8z M-8.7,440.1l-27.5-12.5l32.5-27.9l36.2,13.6
		L-8.7,440.1z M-1.9,440.9l38.4-25.3l16.8,18.7L-1.9,440.9z M41,414.2L61,407L56,430.7L41,414.2z M54.6,458.4l-3.7-1.4l9.2-23.4
		l4.3-22.6l10.5,24.2L54.6,458.4z M78.7,433.9L70,414.2l19.3,20.1L78.7,433.9z M83.2,422.2l36.2-48.3l11.7,46.4l-36.2,14.6
		L83.2,422.2z M127.8,435.2l-17.9,2.5l-2.5,13l-11.7,9.5l-12.5-2.5l13-10.3v-9l74.2-29.6L127.8,435.2z M139.9,416.5l21.6-29
		l29.2,8.8L139.9,416.5z M192.9,392.8l-26.7-8l26.7-26.7V392.8z M196.2,348.5l-9.2-37.6l12.5-14.6l21.8,19.7L196.2,348.5z
		 M216.4,364.3l-19.3,24.9v-33.7l23,8.8H216.4z M198.5,351.9l12.1-15.8L227,363L198.5,351.9z M231.4,362l-16.2-26.3l48.1-15.8
		L231.4,362z M284.6,291.5l-18.7,24.7l-39.5-2.5l5.8-18.3l21.2-13.2l32.9,6.6L284.6,291.5z M288.9,284.8l-33.7-7l25.5-15.4
		l13.2,14.2L288.9,284.8z M295.9,272.8l-12.1-12.5l27.1-13.6L295.9,272.8z M313.1,242.8l-47.5-1.8l35.4-23l23.8,4.3L313.1,242.8z
		 M481.7,161c-94.1,15.2-147.4,53-154.5,57.8l-23-4.3l9.2-13l0.4-0.4l7-10.5h16.8l147.2-34.7L481.7,161z"/>
</g>
</svg>
